#!OML:ASF E:\emotionWalksFemale\Project 1\Capture day 1\Session 1\Female1.ASF
:FULLY-SPECIFIED
:DEGREES
1265
root 7.89939 15.3602 -37.3703 -0.642788 -34.096 364.275
lowerback 6.96501 4.04636 8.47276
upperback -1.0497 6.2335 3.14274
thorax -4.46069 2.88491 -2.07518
lowerneck -1.65397 4.7787 2.1667
upperneck 24.2089 7.74567 -6.49847
head 8.07892 3.27996 -1.95506
rclavicle -4.29002e-014 -3.49861e-014
rhumerus -4.40288 -7.34457 -49.0498
rradius 36.9402
rwrist 22.1654
rhand -8.39604 -57.2993
rfingers 7.12502
rthumb -162.472 453.471
lclavicle -4.29002e-014 -3.49861e-014
lhumerus -42.9969 -1.35409 62.62
lradius 38.4392
lwrist -17.7815
lhand -9.16769 -33.2901
lfingers 7.12502
lthumb 16.785 -3.99566
rfemur -10.2721 -7.14631 25.7284
rtibia 31.1074
rfoot -40.7528 -40.7041
rtoes 41.5861
lfemur -19.2683 -3.52236 -22.0368
ltibia 46.4905
lfoot -19.8052 11.3919
ltoes -16.7854
1266
root 7.89493 15.375 -37.3595 -0.779677 -33.7256 364.286
lowerback 6.59005 4.18285 8.51776
upperback -0.844852 6.35915 3.19836
thorax -4.02287 2.97015 -2.00985
lowerneck -1.98075 4.5142 1.60962
upperneck 24.2724 7.35462 -6.1121
head 8.10458 3.07186 -1.75548
rclavicle -3.56461e-014 -1.1291e-013
rhumerus -3.32613 -7.42969 -49.3506
rradius 37.6682
rwrist 21.1256
rhand -8.37756 -57.4142
rfingers 7.12502
rthumb -162.454 453.358
lclavicle -3.56461e-014 -1.1291e-013
lhumerus -43.5353 -0.772236 62.3484
lradius 38.2187
lwrist -17.8873
lhand -8.95633 -33.0896
lfingers 7.12502
lthumb 16.9885 -3.81248
rfemur -9.98975 -7.25936 25.5378
rtibia 31.0321
rfoot -40.021 -40.7087
rtoes 41.3462
lfemur -18.5193 -3.21623 -22.0716
ltibia 46.7663
lfoot -20.0612 13.0037
ltoes -15.2411
1267
root 7.89829 15.386 -37.399 -0.915712 -32.6907 364.207
lowerback 6.8545 4.16846 8.49414
upperback -0.863024 6.37064 3.1641
thorax -4.18876 2.96882 -2.05737
lowerneck -1.84414 4.12045 1.50421
upperneck 24.0921 6.76113 -5.90974
head 7.97997 2.80766 -1.72043
rclavicle -4.19187e-014 5.725e-014
rhumerus -2.62602 -7.35265 -49.6652
rradius 38.3742
rwrist 19.6496
rhand -8.88403 -57.9231
rfingers 7.12502
rthumb -162.942 452.806
lclavicle -4.19187e-014 5.725e-014
lhumerus -43.8579 -0.633564 62.0613
lradius 37.8674
lwrist -18.1235
lhand -8.69015 -32.8438
lfingers 7.12502
lthumb 17.2447 -3.58897
rfemur -9.70749 -7.36231 25.5999
rtibia 30.9369
rfoot -40.5532 -40.7722
rtoes 42.0149
lfemur -18.0572 -2.96143 -21.8362
ltibia 47.0171
lfoot -19.6724 14.2737
ltoes -15.0525
1268
root 7.89914 15.4033 -37.4058 -0.656013 -32.0002 364.084
lowerback 6.40448 4.31689 8.5329
upperback -0.915051 6.52435 3.20502
thorax -3.9763 3.0529 -2.01014
lowerneck -1.77294 3.70493 1.39302
upperneck 24.0436 6.18392 -5.87152
head 7.92013 2.53112 -1.73503
rclavicle 6.17848e-014 2.06736e-014
rhumerus -1.79354 -7.38443 -49.9458
rradius 38.691
rwrist 18.5886
rhand -9.6933 -58.1137
rfingers 7.12502
rthumb -163.721 452.55
lclavicle 6.17848e-014 2.06736e-014
lhumerus -44.4039 -0.494473 61.9938
lradius 37.6071
lwrist -18.4315
lhand -8.06561 -32.6713
lfingers 7.12502
lthumb 17.8457 -3.47009
rfemur -9.77324 -7.35249 25.6371
rtibia 30.7811
rfoot -40.8271 -40.6789
rtoes 42.6528
lfemur -17.8575 -2.72537 -21.6338
ltibia 47.1594
lfoot -19.4357 15.4216
ltoes -12.3244
1269
root 7.90439 15.4093 -37.4257 -0.687971 -31.1595 363.982
lowerback 6.50072 4.34165 8.47938
upperback -0.965308 6.57215 3.27803
thorax -4.09378 3.07247 -1.92089
lowerneck -1.74678 3.32271 1.1355
upperneck 24.082 5.63707 -5.67507
head 7.89201 2.26648 -1.66832
rclavicle -4.34344e-014 2.38542e-014
rhumerus -0.945977 -7.25788 -50.2827
rradius 38.9192
rwrist 17.9366
rhand -10.392 -57.6345
rfingers 7.12502
rthumb -164.394 452.975
lclavicle -4.34344e-014 2.38542e-014
lhumerus -45.1736 -0.467866 62.0231
lradius 37.5489
lwrist -18.5531
lhand -6.93231 -32.2102
lfingers 7.12502
lthumb 18.9359 -3.11189
rfemur -9.55658 -7.41802 25.6675
rtibia 30.6239
rfoot -40.7105 -40.882
rtoes 42.7464
lfemur -17.3987 -2.57553 -21.3878
ltibia 47.2642
lfoot -19.3595 16.1293
ltoes -8.91374
1270
root 7.91051 15.4192 -37.4427 -0.689611 -30.2673 363.985
lowerback 6.3989 4.27683 8.34138
upperback -0.985094 6.46959 3.36538
thorax -4.09122 3.02634 -1.74119
lowerneck -1.57101 3.03136 0.673198
upperneck 23.9655 5.19689 -5.35405
head 7.78398 2.05133 -1.51873
rclavicle -5.52124e-014 4.77083e-014
rhumerus -0.0828768 -6.47517 -50.5233
rradius 39.3537
rwrist 17.2809
rhand -10.7693 -57.5274
rfingers 7.12502
rthumb -164.757 453.054
lclavicle -5.52124e-014 4.77083e-014
lhumerus -46.0725 -0.253821 62.0862
lradius 37.5165
lwrist -18.7396
lhand -7.05014 -32.0053
lfingers 7.12502
lthumb 18.8226 -2.89599
rfemur -9.42457 -7.52611 25.6204
rtibia 30.4528
rfoot -39.8567 -41.5609
rtoes 41.5736
lfemur -17.0507 -2.52734 -21.2819
ltibia 47.2955
lfoot -18.9752 17.3232
ltoes -9.3212
1271
root 7.91746 15.4326 -37.4549 -0.778128 -29.3797 363.994
lowerback 6.33735 4.2165 8.27708
upperback -0.84018 6.36784 3.41433
thorax -3.92493 2.98846 -1.63651
lowerneck -1.88721 2.70311 0.197123
upperneck 23.9219 4.71755 -5.01211
head 7.79071 1.80786 -1.35441
rclavicle -6.89286e-014 -1.43125e-014
rhumerus 1.00537 -6.00542 -50.8082
rradius 39.6189
rwrist 16.9461
rhand -11.0132 -57.965
rfingers 7.12502
rthumb -164.992 452.599
lclavicle -6.89286e-014 -1.43125e-014
lhumerus -46.6708 0.0110725 62.1895
lradius 37.4261
lwrist -18.9633
lhand -6.64321 -31.8731
lfingers 7.12502
lthumb 19.2139 -2.8022
rfemur -9.17869 -7.66011 25.5299
rtibia 30.3027
rfoot -38.9133 -42.1272
rtoes 40.4057
lfemur -16.6421 -2.49646 -21.2135
ltibia 47.2811
lfoot -18.6289 18.3948
ltoes -10.6015
1272
root 7.92482 15.445 -37.4672 -0.773157 -28.558 363.927
lowerback 6.16109 4.22299 8.26394
upperback -0.793514 6.35364 3.46512
thorax -3.78492 2.98936 -1.55865
lowerneck -1.75334 2.32455 -0.282529
upperneck 23.7918 4.1457 -4.62561
head 7.68852 1.53339 -1.18799
rclavicle -7.51158e-014 3.18055e-015
rhumerus 1.84894 -5.64453 -51.0546
rradius 39.7273
rwrist 16.9547
rhand -11.2642 -58.5644
rfingers 7.12502
rthumb -165.234 451.982
lclavicle -7.51158e-014 3.18055e-015
lhumerus -47.3664 -0.0258594 62.3892
lradius 37.3425
lwrist -19.1135
lhand -6.10239 -31.9937
lfingers 7.12502
lthumb 19.7339 -2.9754
rfemur -8.99415 -7.56046 25.5073
rtibia 30.2706
rfoot -39.1359 -42.0337
rtoes 40.6543
lfemur -16.2322 -2.47236 -20.9887
ltibia 47.2177
lfoot -19.2496 18.1406
ltoes -3.2841
1273
root 7.93452 15.4488 -37.4847 -0.815966 -27.7168 363.876
lowerback 6.03108 4.23576 8.26039
upperback -0.682686 6.34705 3.47438
thorax -3.59717 2.99667 -1.53019
lowerneck -1.71277 1.93785 -0.714634
upperneck 23.6097 3.55477 -4.21505
head 7.59113 1.25546 -1.02081
rclavicle -2.68359e-014 7.95139e-015
rhumerus 2.62132 -5.28506 -51.2675
rradius 39.9008
rwrist 16.9795
rhand -11.7565 -59.809
rfingers 7.12502
rthumb -165.708 450.703
lclavicle -2.68359e-014 7.95139e-015
lhumerus -47.6925 0.102627 62.5745
lradius 37.025
lwrist -19.5368
lhand -5.81089 -31.866
lfingers 7.12502
lthumb 20.0141 -2.87672
rfemur -8.75348 -7.27626 25.4711
rtibia 30.2383
rfoot -39.7823 -41.8731
rtoes 41.0662
lfemur -15.864 -2.20001 -20.8597
ltibia 47.0529
lfoot -18.5143 18.3924
ltoes -2.63819
1274
root 7.9497 15.4388 -37.5016 -1.00617 -26.8164 364.006
lowerback 6.35956 4.21379 7.95657
upperback -0.818957 6.34892 3.54249
thorax -3.96491 2.98819 -1.33181
lowerneck -1.63895 1.57539 -1.15578
upperneck 23.6562 3.02485 -3.88639
head 7.57217 0.993872 -0.87529
rclavicle 7.34509e-014 7.79236e-014
rhumerus 3.07369 -4.55409 -51.355
rradius 40.0489
rwrist 16.9899
rhand -10.6651 -58.8563
rfingers 7.12502
rthumb -164.657 451.733
lclavicle 7.34509e-014 7.79236e-014
lhumerus -48.4821 0.213838 62.9544
lradius 36.8057
lwrist -20.0937
lhand -5.55346 -31.3524
lfingers 7.12502
lthumb 20.2616 -2.38921
rfemur -8.50521 -7.06161 25.2278
rtibia 30.2663
rfoot -39.5338 -42.1009
rtoes 40.1953
lfemur -15.1953 -2.09971 -20.9694
ltibia 46.764
lfoot -18.3104 18.3019
ltoes 0.478605
1275
root 7.95846 15.4647 -37.5156 -0.874624 -25.7926 364.258
lowerback 5.82332 4.18141 7.64782
upperback -0.765267 6.22038 3.49478
thorax -3.64179 2.94641 -1.15705
lowerneck -1.42969 1.2189 -1.60967
upperneck 23.2924 2.47593 -3.51747
head 7.39619 0.735739 -0.714792
rclavicle 3.21534e-014 -2.54444e-014
rhumerus 3.85283 -3.82579 -51.6004
rradius 40.0657
rwrist 16.6558
rhand -10.2206 -59.9377
rfingers 7.12502
rthumb -164.229 450.685
lclavicle 3.21534e-014 -2.54444e-014
lhumerus -49.0462 0.242055 63.3678
lradius 36.769
lwrist -20.2286
lhand -5.05265 -30.9383
lfingers 7.12502
lthumb 20.7428 -2.02693
rfemur -8.61605 -6.81794 24.9173
rtibia 30.3165
rfoot -38.6153 -42.7235
rtoes 38.5234
lfemur -15.2448 -2.33676 -21.0674
ltibia 46.368
lfoot -17.8946 18.4335
ltoes 4.25853
1276
root 7.96806 15.487 -37.5259 -0.831593 -24.8836 364.326
lowerback 6.29665 4.10178 7.52945
upperback -1.13795 6.18721 3.45024
thorax -4.30986 2.90087 -1.19343
lowerneck -1.24879 0.881961 -2.04428
upperneck 23.4025 1.97477 -3.17788
head 7.38883 0.487714 -0.564431
rclavicle -2.70844e-014 0
rhumerus 3.8312 -2.16435 -51.6685
rradius 40.3947
rwrist 15.5778
rhand -10.3841 -62.7
rfingers 7.12502
rthumb -164.386 272.09
lclavicle -2.70844e-014 0
lhumerus -50.246 -0.13964 63.7014
lradius 36.7198
lwrist -19.9959
lhand -4.76066 -30.9436
lfingers 7.12502
lthumb 21.0234 -2.06312
rfemur -8.49607 -6.52923 24.7464
rtibia 30.3268
rfoot -37.8678 -43.0607
rtoes 37.7666
lfemur -15.0967 -2.13074 -21.0457
ltibia 45.8711
lfoot -16.3688 19.0603
ltoes -0.308954
